<?xml version="1.0" encoding="UTF-8" standalone="no"?>
<svg
   xmlns:dc="http://purl.org/dc/elements/1.1/"
   xmlns:cc="http://creativecommons.org/ns#"
   xmlns:rdf="http://www.w3.org/1999/02/22-rdf-syntax-ns#"
   xmlns:svg="http://www.w3.org/2000/svg"
   xmlns="http://www.w3.org/2000/svg"
   xmlns:sodipodi="http://sodipodi.sourceforge.net/DTD/sodipodi-0.dtd"
   xmlns:inkscape="http://www.inkscape.org/namespaces/inkscape"
   width="16"
   height="14.012994"
   viewBox="0 0 16 14.012994"
   id="svg4149"
   version="1.1"
   inkscape:version="1.0 (4035a4fb49, 2020-05-01)"
   sodipodi:docname="wired_na.svg">
  <defs
     id="defs4151" />
  <sodipodi:namedview
     id="base"
     pagecolor="#ffffff"
     bordercolor="#666666"
     borderopacity="1.0"
     inkscape:pageopacity="0.0"
     inkscape:pageshadow="2"
     inkscape:zoom="11.313709"
     inkscape:cx="-14.706291"
     inkscape:cy="5.7378913"
     inkscape:document-units="px"
     inkscape:current-layer="layer1"
     showgrid="true"
     units="px"
     inkscape:snap-bbox="true"
     inkscape:object-paths="false"
     inkscape:object-nodes="true"
     inkscape:snap-bbox-midpoints="true"
     inkscape:window-width="1920"
     inkscape:window-height="1059"
     inkscape:window-x="0"
     inkscape:window-y="21"
     inkscape:window-maximized="1"
     inkscape:document-rotation="0">
    <inkscape:grid
       type="xygrid"
       id="grid4697"
       originx="-26"
       originy="-1.0000058" />
  </sodipodi:namedview>
  <metadata
     id="metadata4154">
    <rdf:RDF>
      <cc:Work
         rdf:about="">
        <dc:format>image/svg+xml</dc:format>
        <dc:type
           rdf:resource="http://purl.org/dc/dcmitype/StillImage" />
        <dc:title />
      </cc:Work>
    </rdf:RDF>
  </metadata>
  <g
     inkscape:label="Ebene 1"
     inkscape:groupmode="layer"
     id="layer1"
     transform="translate(-26,-1037.3622)">
    <g
       transform="translate(25.5,-0.99349713)"
       id="g856">
      <path
         id="rect4699"
         d="M 3,2 C 1.892,2 1,2.8919904 1,4 v 7 c 0,1.10801 0.892,2 2,2 h 1 l 1,1 h 5 V 12 H 6 L 5,11 H 3 V 4 h 10 v 6 h 2 V 4 C 15,2.8919904 14.108,2 13,2 Z"
         style="opacity:1;fill:#665c54;fill-opacity:1;stroke:none;stroke-width:2;stroke-linecap:butt;stroke-linejoin:round;stroke-miterlimit:4;stroke-dasharray:none;stroke-dashoffset:0;stroke-opacity:1"
         transform="translate(0,1036.3622)" />
      <path
         style="display:inline;fill:#a89984;fill-opacity:1;stroke:none;enable-background:new"
         id="path5898-0"
         d="m 11,1047.3622 v 1 c 0,0.2761 0.10029,0.5378 0.28125,0.7188 l 0.78125,0.7812 -0.78125,0.7813 C 11.10029,1050.8244 11,1051.0861 11,1051.3622 v 1 h 1 c 0.27614,0 0.53779,-0.1003 0.71875,-0.2812 l 0.78125,-0.7813 0.78125,0.7813 c 0.18096,0.1809 0.44261,0.2812 0.71875,0.2812 h 1 v -1 c 0,-0.2761 -0.10029,-0.5378 -0.28125,-0.7187 l -0.78125,-0.7813 0.78125,-0.7812 C 15.89971,1048.9 16,1048.6383 16,1048.3622 v -1 h -1 c -0.27614,0 -0.53779,0.1003 -0.71875,0.2813 l -0.78125,0.7812 -0.78125,-0.7812 c -0.18096,-0.181 -0.44261,-0.2813 -0.71875,-0.2813 z"
         inkscape:connector-curvature="0" />
    </g>
  </g>
</svg>
