<?xml version="1.0" encoding="UTF-8" standalone="no"?>
<svg
   xmlns:dc="http://purl.org/dc/elements/1.1/"
   xmlns:cc="http://creativecommons.org/ns#"
   xmlns:rdf="http://www.w3.org/1999/02/22-rdf-syntax-ns#"
   xmlns:svg="http://www.w3.org/2000/svg"
   xmlns="http://www.w3.org/2000/svg"
   xmlns:sodipodi="http://sodipodi.sourceforge.net/DTD/sodipodi-0.dtd"
   xmlns:inkscape="http://www.inkscape.org/namespaces/inkscape"
   version="1.0"
   width="300px"
   height="300px"
   viewBox="0 0 3000 3000"
   preserveAspectRatio="xMidYMid meet"
   id="svg8"
   sodipodi:docname="archlinux.svg"
   inkscape:version="0.92.2 2405546, 2018-03-11">
  <metadata
     id="metadata14">
    <rdf:RDF>
      <cc:Work
         rdf:about="">
        <dc:format>image/svg+xml</dc:format>
        <dc:type
           rdf:resource="http://purl.org/dc/dcmitype/StillImage" />
      </cc:Work>
    </rdf:RDF>
  </metadata>
  <defs
     id="defs12" />
  <sodipodi:namedview
     pagecolor="#ffffff"
     bordercolor="#666666"
     borderopacity="1"
     objecttolerance="10"
     gridtolerance="10"
     guidetolerance="10"
     inkscape:pageopacity="0"
     inkscape:pageshadow="2"
     inkscape:window-width="1920"
     inkscape:window-height="1055"
     id="namedview10"
     showgrid="false"
     inkscape:zoom="0.78666667"
     inkscape:cx="-86.440678"
     inkscape:cy="150"
     inkscape:window-x="0"
     inkscape:window-y="25"
     inkscape:window-maximized="1"
     inkscape:current-layer="svg8" />
  <g
     id="layer101"
     fill="#80a0bf"
     stroke="none">
    <path
       d="M3 2985 c4 -8 78 -144 165 -302 368 -666 580 -1060 777 -1448 73 -143 134 -267 137 -275 6 -17 1 -19 108 53 69 48 247 146 263 147 5 0 -27 -28 -70 -62 -43 -34 -118 -101 -166 -148 l-89 -85 84 -190 c47 -105 129 -299 183 -432 54 -134 101 -243 105 -243 4 0 47 93 95 208 149 352 260 594 439 952 162 323 507 983 583 1114 19 32 32 60 29 63 -2 2 -39 -14 -82 -35 -68 -34 -243 -102 -262 -102 -4 0 19 16 51 35 103 62 179 116 290 204 l107 86 126 233 c70 128 124 235 121 238 -3 3 -70 -30 -149 -74 -373 -208 -678 -339 -936 -402 -86 -21 -93 -24 -88 -44 3 -11 9 -62 12 -112 19 -256 -88 -515 -241 -585 -54 -25 -137 -24 -191 1 -88 43 -167 162 -205 309 -22 84 -30 246 -16 347 l9 60 -59 13 c-263 58 -586 194 -978 411 -79 44 -147 80 -150 80 -4 0 -5 -7 -2 -15z"
       id="path2" />
  </g>
  <g
     id="layer102"
     fill="#ebdbb2"
     stroke="none"
     style="fill:#1d2021;fill-opacity:1">
    <path
       d="M3 2985 c4 -8 78 -144 165 -302 368 -666 580 -1060 777 -1448 73 -143 134 -267 137 -275 6 -17 1 -19 108 53 71 49 247 146 264 147 5 0 -12 -16 -38 -36 -25 -19 -44 -39 -41 -44 3 -5 0 -12 -6 -16 -8 -4 -9 -3 -5 4 4 7 3 12 -2 12 -12 0 -63 -55 -57 -62 3 -3 -2 -11 -12 -19 -11 -9 -14 -10 -9 -1 19 31 -16 6 -82 -61 l-73 -73 84 -190 c46 -104 128 -298 182 -431 54 -134 101 -243 105 -243 4 0 47 93 95 208 149 352 260 594 439 952 162 323 507 983 583 1114 19 32 32 60 29 63 -2 2 -39 -14 -82 -35 -67 -33 -242 -102 -261 -102 -3 0 35 26 85 58 141 89 184 121 176 134 -5 7 -3 8 5 4 15 -10 53 23 44 37 -4 6 -1 7 6 3 14 -9 53 22 46 35 -3 4 0 11 6 15 8 4 9 3 5 -4 -4 -7 -3 -12 2 -12 12 0 42 34 42 47 0 6 8 17 18 24 15 13 16 12 3 -3 -7 -10 -9 -18 -3 -18 12 0 267 469 259 476 -3 3 -70 -30 -149 -74 -373 -208 -678 -339 -936 -402 -86 -21 -93 -24 -88 -44 14 -53 18 -209 7 -287 -15 -99 -58 -222 -100 -285 -17 -25 -29 -49 -26 -53 2 -5 -7 -19 -22 -32 -14 -13 -23 -18 -19 -11 9 14 -10 17 -19 2 -15 -25 -86 -50 -141 -50 -105 0 -191 64 -254 190 -64 126 -90 316 -67 486 l9 60 -59 13 c-263 58 -586 194 -978 411 -79 44 -147 80 -150 80 -4 0 -5 -7 -2 -15z"
       id="path5"
       style="fill:#1d2021;fill-opacity:1" />
  </g>
</svg>
