<?xml version="1.0" encoding="UTF-8" standalone="no"?>
<svg
   xmlns:dc="http://purl.org/dc/elements/1.1/"
   xmlns:cc="http://creativecommons.org/ns#"
   xmlns:rdf="http://www.w3.org/1999/02/22-rdf-syntax-ns#"
   xmlns:svg="http://www.w3.org/2000/svg"
   xmlns="http://www.w3.org/2000/svg"
   xmlns:sodipodi="http://sodipodi.sourceforge.net/DTD/sodipodi-0.dtd"
   xmlns:inkscape="http://www.inkscape.org/namespaces/inkscape"
   style="display:inline"
   inkscape:output_extension="org.inkscape.output.svg.inkscape"
   sodipodi:docname="battery-missing-symbolic.svg"
   version="1.0"
   inkscape:version="1.0 (4035a4fb49, 2020-05-01)"
   sodipodi:version="0.32"
   id="svg2"
   height="14"
   width="10">
  <defs
     id="defs4" />
  <sodipodi:namedview
     inkscape:document-rotation="0"
     inkscape:window-maximized="1"
     inkscape:window-y="21"
     inkscape:window-x="0"
     inkscape:window-height="1059"
     inkscape:window-width="1920"
     inkscape:guide-bbox="true"
     showguides="false"
     inkscape:showpageshadow="false"
     showgrid="true"
     inkscape:current-layer="layer1"
     inkscape:document-units="px"
     inkscape:cy="0.4258958"
     inkscape:cx="7.9891307"
     inkscape:zoom="15.810166"
     inkscape:pageshadow="2"
     inkscape:pageopacity="0.0"
     borderopacity="1"
     bordercolor="#fd0000"
     pagecolor="#ffffff"
     id="base">
    <sodipodi:guide
       inkscape:locked="false"
       id="guide2383"
       position="-3,111"
       orientation="1,0" />
    <sodipodi:guide
       inkscape:locked="false"
       id="guide2385"
       position="23.278146,127"
       orientation="0,1" />
    <sodipodi:guide
       inkscape:locked="false"
       id="guide2387"
       position="125,53.082119"
       orientation="1,0" />
    <sodipodi:guide
       inkscape:locked="false"
       id="guide2389"
       position="75.156291,-1"
       orientation="0,1" />
    <sodipodi:guide
       inkscape:locked="false"
       id="guide2391"
       position="57.863576,63.084768"
       orientation="0,1" />
    <inkscape:grid
       originy="-1"
       originx="-6"
       snapvisiblegridlinesonly="true"
       empspacing="8"
       enabled="true"
       visible="true"
       id="grid3672"
       type="xygrid" />
  </sodipodi:namedview>
  <metadata
     id="metadata7">
    <rdf:RDF>
      <cc:Work
         rdf:about="">
        <dc:format>image/svg+xml</dc:format>
        <dc:type
           rdf:resource="http://purl.org/dc/dcmitype/StillImage" />
        <dc:title />
      </cc:Work>
    </rdf:RDF>
  </metadata>
  <g
     transform="translate(-3,-7)"
     style="display:inline"
     id="layer1"
     inkscape:groupmode="layer"
     inkscape:label="Icon">
    <path
       id="path3775"
       d="m 32,20.75 c 0,0.6925 0.5575,1.25 1.25,1.25 h 8.5 C 42.4425,22 43,21.4425 43,20.75 V 9.25 C 43,8.5575 42.4425,8 41.75,8 H 40 V 7 6.5 C 40,6.223 39.777,6 39.5,6 H 39 36 35.5 C 35.223,6 35,6.223 35,6.5 V 7 8 H 33.25 C 32.5575,8 32,8.5575 32,9.25 Z m 2,-1.5 v -8.5 C 34,10.3345 34.3345,10 34.75,10 h 5.5 c 0.4155,0 0.75,0.3345 0.75,0.75 v 8.5 C 41,19.6655 40.6655,20 40.25,20 h -5.5 C 34.3345,20 34,19.6655 34,19.25 Z"
       style="display:inline;opacity:0.45;fill:#bebebe;fill-opacity:1;stroke:none"
       inkscape:connector-curvature="0" />
    <path
       inkscape:connector-curvature="0"
       style="color:#000000;display:inline;overflow:visible;visibility:visible;opacity:1;fill:#665c54;fill-opacity:1;fill-rule:nonzero;stroke:none;stroke-width:8;marker:none;enable-background:accumulate"
       d="M 6.5,7 C 6.223,7 6,7.223 6,7.5 V 8 H 4 C 3.446,8 3,8.446 3,9 v 11 c 0,0.554 0.446,1 1,1 h 8 c 0.554,0 1,-0.446 1,-1 V 9 C 13,8.446 12.554,8 12,8 H 10 V 7.5 C 10,7.223 9.777,7 9.5,7 Z m -1,3 h 5 c 0.277,0 0.5,0.223 0.5,0.5 v 8 c 0,0.277 -0.223,0.5 -0.5,0.5 h -5 C 5.223,19 5,18.777 5,18.5 v -8 C 5,10.223 5.223,10 5.5,10 Z"
       id="path3777" />
  </g>
</svg>
