<?xml version="1.0" encoding="UTF-8" standalone="no"?>
<svg
   xmlns:dc="http://purl.org/dc/elements/1.1/"
   xmlns:cc="http://creativecommons.org/ns#"
   xmlns:rdf="http://www.w3.org/1999/02/22-rdf-syntax-ns#"
   xmlns:svg="http://www.w3.org/2000/svg"
   xmlns="http://www.w3.org/2000/svg"
   xmlns:sodipodi="http://sodipodi.sourceforge.net/DTD/sodipodi-0.dtd"
   xmlns:inkscape="http://www.inkscape.org/namespaces/inkscape"
   style="display:inline"
   inkscape:output_extension="org.inkscape.output.svg.inkscape"
   sodipodi:docname="battery-low-charging-symbolic.svg"
   version="1.0"
   inkscape:version="1.0 (4035a4fb49, 2020-05-01)"
   sodipodi:version="0.32"
   id="svg2"
   height="14"
   width="10">
  <defs
     id="defs4" />
  <sodipodi:namedview
     inkscape:document-rotation="0"
     inkscape:window-maximized="1"
     inkscape:window-y="21"
     inkscape:window-x="0"
     inkscape:window-height="1059"
     inkscape:window-width="1920"
     inkscape:guide-bbox="true"
     showguides="false"
     inkscape:showpageshadow="false"
     showgrid="true"
     inkscape:current-layer="layer1"
     inkscape:document-units="px"
     inkscape:cy="2.7029117"
     inkscape:cx="0.6454307"
     inkscape:zoom="15.810166"
     inkscape:pageshadow="2"
     inkscape:pageopacity="0.0"
     borderopacity="1"
     bordercolor="#fd0000"
     pagecolor="#ffffff"
     id="base">
    <sodipodi:guide
       inkscape:locked="false"
       id="guide2383"
       position="-3,111"
       orientation="1,0" />
    <sodipodi:guide
       inkscape:locked="false"
       id="guide2385"
       position="23.278146,127"
       orientation="0,1" />
    <sodipodi:guide
       inkscape:locked="false"
       id="guide2387"
       position="125,53.082119"
       orientation="1,0" />
    <sodipodi:guide
       inkscape:locked="false"
       id="guide2389"
       position="75.156291,-1"
       orientation="0,1" />
    <sodipodi:guide
       inkscape:locked="false"
       id="guide2391"
       position="57.863576,63.084768"
       orientation="0,1" />
    <inkscape:grid
       originy="-1"
       originx="-3"
       snapvisiblegridlinesonly="true"
       empspacing="8"
       enabled="true"
       visible="true"
       id="grid3672"
       type="xygrid" />
  </sodipodi:namedview>
  <metadata
     id="metadata7">
    <rdf:RDF>
      <cc:Work
         rdf:about="">
        <dc:format>image/svg+xml</dc:format>
        <dc:type
           rdf:resource="http://purl.org/dc/dcmitype/StillImage" />
        <dc:title />
      </cc:Work>
    </rdf:RDF>
  </metadata>
  <g
     transform="translate(-3,-7)"
     style="display:inline"
     id="layer1"
     inkscape:groupmode="layer"
     inkscape:label="Icon">
    <rect
       ry="0.5"
       rx="0.5"
       y="10"
       x="24"
       height="10"
       width="7"
       id="rect2999"
       style="color:#000000;display:inline;overflow:visible;visibility:visible;fill:#4e9a06;fill-opacity:1;fill-rule:nonzero;stroke:none;stroke-width:1.5;marker:none;enable-background:accumulate" />
    <path
       id="path3775"
       d="m -18,20.75 c 0,0.6925 0.5575,1.25 1.25,1.25 h 8.5 C -7.5575,22 -7,21.4425 -7,20.75 V 9.25 C -7,8.5575 -7.5575,8 -8.25,8 H -10 V 7 6.5 C -10,6.223 -10.223,6 -10.5,6 h -0.5 -3 -0.5 C -14.777,6 -15,6.223 -15,6.5 V 7 8 h -1.75 C -17.4425,8 -18,8.5575 -18,9.25 Z m 2,-1.5 v -8.5 c 0,-0.4155 0.3345,-0.75 0.75,-0.75 h 5.5 c 0.4155,0 0.75,0.3345 0.75,0.75 v 8.5 C -9,19.6655 -9.3345,20 -9.75,20 h -5.5 C -15.6655,20 -16,19.6655 -16,19.25 Z"
       style="display:inline;fill:#bebebe;fill-opacity:1;stroke:none"
       inkscape:connector-curvature="0" />
    <rect
       ry="0.5"
       style="color:#000000;display:inline;overflow:visible;visibility:visible;opacity:0.45;fill:#bebebe;fill-opacity:1;fill-rule:nonzero;stroke:none;stroke-width:1.5;marker:none;enable-background:accumulate"
       id="rect3011"
       width="7"
       height="10"
       x="-16"
       y="10"
       rx="0.5" />
    <path
       id="path3000"
       transform="translate(0,6)"
       d="M 6.5,1 C 6.223,1 6,1.223 6,1.5 V 2 H 4 C 3.446,2 3,2.446 3,3 v 11 c 0,0.554 0.446,1 1,1 h 8 c 0.554,0 1,-0.446 1,-1 V 3 C 13,2.446 12.554,2 12,2 H 10 V 1.5 C 10,1.223 9.777,1 9.5,1 Z M 7,4 11,10 H 8.53125 L 9,14 5,8 h 2.5 z"
       style="color:#000000;display:inline;overflow:visible;visibility:visible;opacity:1;fill:#665c54;fill-opacity:1;fill-rule:nonzero;stroke:none;stroke-width:8;marker:none;enable-background:accumulate" />
    <path
       inkscape:connector-curvature="0"
       id="path3002"
       transform="translate(0,6)"
       d="m 3,8 v 6 c 0,0.554 0.446,1 1,1 h 8 c 0.554,0 1,-0.446 1,-1 V 8 H 9.65625 L 11,10 H 8.53125 L 9,14 5,8 Z"
       style="color:#000000;display:inline;overflow:visible;visibility:visible;fill:#a89984;fill-opacity:1;fill-rule:nonzero;stroke:none;stroke-width:8;marker:none;enable-background:accumulate" />
  </g>
</svg>
