<?xml version="1.0" encoding="UTF-8" standalone="no"?>
<svg
   xmlns:dc="http://purl.org/dc/elements/1.1/"
   xmlns:cc="http://creativecommons.org/ns#"
   xmlns:rdf="http://www.w3.org/1999/02/22-rdf-syntax-ns#"
   xmlns:svg="http://www.w3.org/2000/svg"
   xmlns="http://www.w3.org/2000/svg"
   xmlns:sodipodi="http://sodipodi.sourceforge.net/DTD/sodipodi-0.dtd"
   xmlns:inkscape="http://www.inkscape.org/namespaces/inkscape"
   style="display:inline"
   inkscape:output_extension="org.inkscape.output.svg.inkscape"
   sodipodi:docname="battery-full-charged-symbolic.svg"
   version="1.0"
   inkscape:version="1.0 (4035a4fb49, 2020-05-01)"
   sodipodi:version="0.32"
   id="svg2"
   height="14"
   width="10">
  <defs
     id="defs4" />
  <sodipodi:namedview
     inkscape:document-rotation="0"
     inkscape:snap-global="false"
     inkscape:window-maximized="1"
     inkscape:window-y="21"
     inkscape:window-x="0"
     inkscape:window-height="1059"
     inkscape:window-width="1920"
     inkscape:guide-bbox="true"
     showguides="false"
     inkscape:showpageshadow="false"
     showgrid="true"
     inkscape:current-layer="layer1"
     inkscape:document-units="px"
     inkscape:cy="8.3008357"
     inkscape:cx="18.131304"
     inkscape:zoom="22.292334"
     inkscape:pageshadow="2"
     inkscape:pageopacity="0.0"
     borderopacity="1"
     bordercolor="#fd0000"
     pagecolor="#ffffff"
     id="base">
    <sodipodi:guide
       inkscape:locked="false"
       id="guide2383"
       position="-3,91"
       orientation="1,0" />
    <sodipodi:guide
       inkscape:locked="false"
       id="guide2385"
       position="23.278146,107"
       orientation="0,1" />
    <sodipodi:guide
       inkscape:locked="false"
       id="guide2387"
       position="125,33.082119"
       orientation="1,0" />
    <sodipodi:guide
       inkscape:locked="false"
       id="guide2389"
       position="75.156291,-21"
       orientation="0,1" />
    <sodipodi:guide
       inkscape:locked="false"
       id="guide2391"
       position="57.863576,43.084768"
       orientation="0,1" />
    <inkscape:grid
       originy="-1"
       originx="14"
       snapvisiblegridlinesonly="true"
       empspacing="8"
       enabled="true"
       visible="true"
       id="grid3672"
       type="xygrid" />
  </sodipodi:namedview>
  <metadata
     id="metadata7">
    <rdf:RDF>
      <cc:Work
         rdf:about="">
        <dc:format>image/svg+xml</dc:format>
        <dc:type
           rdf:resource="http://purl.org/dc/dcmitype/StillImage" />
        <dc:title />
      </cc:Work>
    </rdf:RDF>
  </metadata>
  <g
     transform="translate(-3,-7)"
     style="display:inline"
     id="layer1"
     inkscape:groupmode="layer"
     inkscape:label="Icon">
    <path
       sodipodi:nodetypes="sscsssssssscsssccccccc"
       inkscape:connector-curvature="0"
       id="rect3771"
       transform="translate(0,6)"
       d="M 6.5,1 C 6.223,1 6,1.223 6,1.5 V 2 H 4 C 3.446,2 3,2.446 3,3 v 11 c 0,0.554 0.446,1 1,1 h 8 c 0.554,0 1,-0.446 1,-1 V 3 C 13,2.446 12.554,2 12,2 H 10 V 1.5 C 10,1.223 9.777,1 9.5,1 Z M 7,4 11,10 H 8.5415237 L 9,14 5,8 h 2.5036033 z"
       style="color:#000000;display:inline;overflow:visible;visibility:visible;fill:#a89984;fill-opacity:1;fill-rule:nonzero;stroke:none;stroke-width:8;marker:none;enable-background:accumulate" />
    <path
       inkscape:connector-curvature="0"
       id="path4255"
       d="m 20,20.75 c 0,0.6925 0.5575,1.25 1.25,1.25 h 8.5 C 30.4425,22 31,21.4425 31,20.75 v -1.6875 l -2,-3.375 V 19.25 C 29,19.6655 28.6655,20 28.25,20 h -5.5 C 22.3345,20 22,19.6655 22,19.25 v -8.5 C 22,10.3345 22.3345,10 22.75,10 h 5.5 C 28.6655,10 29,10.3345 29,10.75 V 14 h 0.90625 A 1.0121545,1.0121545 0 0 1 30,14 l 1,-0.03125 V 10.09375 9.9375 9.25 C 31,8.5575 30.4425,8 29.75,8 H 28 V 7 6.5 C 28,6.223 27.777,6 27.5,6 H 27 24 23.5 C 23.223,6 23,6.223 23,6.5 V 7 8 H 21.25 C 20.5575,8 20,8.5575 20,9.25 Z"
       style="display:inline;fill:#bebebe;fill-opacity:1;stroke:none" />
    <path
       style="display:inline;fill:#bebebe;fill-opacity:1;stroke:none"
       d="m 34,22 -4,-7 h 2.458476 L 32,10 l 4,7 h -2.526167 z"
       id="path3773"
       inkscape:connector-curvature="0"
       sodipodi:nodetypes="ccccccc" />
    <rect
       ry="0.5"
       rx="0.5"
       y="10"
       x="22"
       height="10"
       width="7"
       id="rect2999"
       style="color:#000000;display:inline;overflow:visible;visibility:visible;opacity:0.45;fill:#bebebe;fill-opacity:1;fill-rule:nonzero;stroke:none;stroke-width:1.5;marker:none;enable-background:accumulate" />
    <path
       id="path3775"
       d="m 22,40.75 c 0,0.6925 0.5575,1.25 1.25,1.25 h 8.5 C 32.4425,42 33,41.4425 33,40.75 V 29.25 C 33,28.5575 32.4425,28 31.75,28 H 30 V 27 26.5 C 30,26.223 29.777,26 29.5,26 H 29 26 25.5 C 25.223,26 25,26.223 25,26.5 V 27 28 H 23.25 C 22.5575,28 22,28.5575 22,29.25 Z m 2,-1.5 v -8.5 C 24,30.3345 24.3345,30 24.75,30 h 5.5 c 0.4155,0 0.75,0.3345 0.75,0.75 v 8.5 C 31,39.6655 30.6655,40 30.25,40 h -5.5 C 24.3345,40 24,39.6655 24,39.25 Z"
       style="display:inline;fill:#bebebe;fill-opacity:1;stroke:none"
       inkscape:connector-curvature="0" />
    <path
       inkscape:connector-curvature="0"
       style="color:#000000;display:inline;overflow:visible;visibility:visible;fill:#bebebe;fill-opacity:1;fill-rule:nonzero;stroke:none;stroke-width:8;marker:none;enable-background:accumulate"
       d="M -13.5,7 C -13.777,7 -14,7.223 -14,7.5 V 8 h -2 c -0.554,0 -1,0.446 -1,1 v 11 c 0,0.554 0.446,1 1,1 h 8 c 0.554,0 1,-0.446 1,-1 V 9 C -7,8.446 -7.446,8 -8,8 h -2 V 7.5 C -10,7.223 -10.223,7 -10.5,7 Z m -1,3 h 5 c 0.277,0 0.5,0.223 0.5,0.5 v 8 c 0,0.277 -0.223,0.5 -0.5,0.5 h -5 c -0.277,0 -0.5,-0.223 -0.5,-0.5 v -8 c 0,-0.277 0.223,-0.5 0.5,-0.5 z"
       id="path3777" />
    <path
       style="color:#000000;display:inline;overflow:visible;visibility:visible;fill:#00aa00;fill-opacity:1;fill-rule:nonzero;stroke:none;stroke-width:8;marker:none;enable-background:accumulate"
       d="m -15.5,9 h 7 C -8.223,9 -8,9.223 -8,9.5 v 10 c 0,0.277 -0.223,0.5 -0.5,0.5 h -7 C -15.777,20 -16,19.777 -16,19.5 V 9.5 C -16,9.223 -15.777,9 -15.5,9 Z"
       id="path3780"
       class="ok"
       inkscape:connector-curvature="0" />
    <path
       sodipodi:nodetypes="ccccccc"
       inkscape:connector-curvature="0"
       id="path3774"
       d="m -11,19 -3,-5 h 2 l -1,-4 3,5 h -2 z"
       style="display:inline;fill:#bebebe;fill-opacity:1;stroke:none" />
  </g>
</svg>
